<svg width="100%" height="100%" viewBox="0 0 0 0" fill="none" xmlns="http://www.w3.org/2000/svg">



<g id='activity'>
<path d="M11.737 7.08931L11.0299 6.38221L11.737 7.08931ZM2.92352 7.66242C2.533 8.05295 2.533 8.68611 2.92352 9.07664C3.31405 9.46716 3.94721 9.46716 4.33774 9.07664L2.92352 7.66242ZM8.32394 3.67622L9.03104 4.38333L9.03104 4.38333L8.32394 3.67622ZM18.2159 20.8364L17.8623 19.901L17.8623 19.901L18.2159 20.8364ZM19.8137 20.0677L20.1231 21.0186L20.1231 21.0186L19.8137 20.0677ZM3.69136 15.135L4.39847 15.8421L3.69136 15.135ZM21.2921 20.6383C21.8173 20.4675 22.1045 19.9032 21.9337 19.378C21.7628 18.8528 21.1986 18.5656 20.6734 18.7364L21.2921 20.6383ZM4.33774 9.07664L9.03104 4.38333L7.61683 2.96912L2.92352 7.66242L4.33774 9.07664ZM10.9996 4.41369C11.5636 4.97769 11.5532 5.85892 11.0299 6.38221L12.4441 7.79642C13.7723 6.46825 13.7348 4.32048 12.4138 2.99948L10.9996 4.41369ZM12.4138 2.99948C11.0928 1.67848 8.945 1.64095 7.61683 2.96912L9.03104 4.38333C9.55434 3.86004 10.4356 3.8497 10.9996 4.41369L12.4138 2.99948ZM17.8569 13.2076L14.839 16.2255L16.2532 17.6397L19.2711 14.6218L17.8569 13.2076ZM14.839 16.2255C14.2006 16.8639 13.9157 17.6412 13.9339 18.4219C13.9516 19.1783 14.2502 19.8792 14.6724 20.4367C15.477 21.4992 17.0201 22.3575 18.5695 21.7718L17.8623 19.901C17.4269 20.0656 16.7456 19.8614 16.2668 19.2292C16.0473 18.9393 15.9394 18.6347 15.9334 18.3752C15.9279 18.1399 16.0021 17.8908 16.2532 17.6397L14.839 16.2255ZM18.5695 21.7718C18.9266 21.6368 19.2546 21.4498 19.4935 21.3183C19.758 21.1727 19.9433 21.0771 20.1231 21.0186L19.5043 19.1168C19.1222 19.2411 18.7847 19.4255 18.529 19.5663C18.2476 19.7212 18.0576 19.8272 17.8623 19.901L18.5695 21.7718ZM17.8257 11.2399C18.3902 11.8043 18.3798 12.6847 17.8569 13.2076L19.2711 14.6218C20.5997 13.2932 20.5605 11.1462 19.24 9.82566L17.8257 11.2399ZM19.24 9.82566C17.919 8.50466 15.7712 8.46713 14.443 9.7953L15.8572 11.2095C16.3805 10.6862 17.2617 10.6759 17.8257 11.2399L19.24 9.82566ZM3.01462 19.2248C4.33562 20.5458 6.48339 20.5833 7.81156 19.2552L6.39734 17.841C5.87405 18.3643 4.99283 18.3746 4.42883 17.8106L3.01462 19.2248ZM4.42883 17.8106C3.86483 17.2466 3.87518 16.3654 4.39847 15.8421L2.98425 14.4279C1.65608 15.756 1.69362 17.9038 3.01462 19.2248L4.42883 17.8106ZM20.1231 21.0186L21.2921 20.6383L20.6734 18.7364L19.5043 19.1168L20.1231 21.0186ZM11.0299 6.38221L2.98425 14.4279L4.39847 15.8421L12.4441 7.79642L11.0299 6.38221ZM7.81156 19.2552L15.8572 11.2095L14.443 9.7953L6.39734 17.841L7.81156 19.2552Z" fill="#131A29"/>
</g>
<g id="career" data-name="Layer 2"><g id="Layer_1-2" data-name="Layer 1"><path class="cls-1" d="M28.22,0H38.79C41,0,41.58.57,41.6,2.8c0,.15,0,.31,0,.47,0,4.56,0,4.56,4.49,4.56,1.11,0,2.21,0,3.32,0a6.76,6.76,0,0,1,7,7q0,3.47,0,6.93a7,7,0,0,1-7,7.33q-.31,0-.63,0c-1.3-.09-2.8.47-3.87-.25-1.24-.83-.43-2.43-.57-3.68-.1-.92-.48-1.32-1.39-1.32-2.31,0-4.63,0-6.94,0-1.13,0-1.58.49-1.63,1.61C34.17,29,34.14,29,30.44,29c-2.21,0-4.42,0-6.63,0-1.14,0-1.75-.3-1.72-1.61.11-4.18.11-3.61-3.81-3.66-1.52,0-3.05,0-4.57,0-1.06,0-1.6.4-1.53,1.48,0,.11,0,.21,0,.32,0,3.65.49,3.48-3.66,3.47a9.7,9.7,0,0,1-4.62-.79A6.64,6.64,0,0,1,.07,22.34c-.1-2.67-.08-5.35,0-8a6.7,6.7,0,0,1,6.5-6.46c2-.08,4.11,0,6.16,0s2.11,0,2.12-2.19c0-1,0-2.1,0-3.15C14.88.66,15.48,0,17.33,0,21,0,24.59,0,28.22,0Zm0,7.81c2.69,0,5.38-.11,8.05,0C38.17,8,37.93,6.81,38,5.65s0-2.09-1.69-2.06c-5.05.11-10.1.05-15.15,0-2.7,0-2.65,0-2.64,2.65,0,1.14.34,1.59,1.54,1.56C22.75,7.78,25.49,7.82,28.22,7.82Z"/><path class="cls-1" d="M28.23,49H8c-5.29,0-8-2.69-8-7.94q0-5.67,0-11.34c0-.41-.16-.93.25-1.17s.74.25,1,.5c2,1.63,4.34,1.95,6.83,1.9,3.84-.07,3.87,0,4,3.72,0,1.21.5,1.71,1.7,1.68,2.21,0,4.42,0,6.63,0,1.12,0,1.58-.47,1.64-1.6.18-3.82.21-3.82,4-3.81,2.21,0,4.42,0,6.63,0,1.15,0,1.57.42,1.56,1.58-.05,4.3-.32,3.78,4,3.82,1.42,0,2.84,0,4.26,0,1.19,0,1.8-.42,1.7-1.66V34.5c.1-3.88-.67-3.63,3.67-3.58,2.76,0,5.36-.25,7.51-2.2.63-.57.94-.28.94.46,0,4.62.18,9.25-.13,13.85C56,46.67,52.93,48.94,48.91,49,42,49,35.13,49,28.23,49Z"/><rect class="cls-1" x="13.49" y="24.63" width="7.57" height="10.68" rx="1.92"/><rect class="cls-1" x="35.15" y="24.63" width="7.57" height="10.68" rx="1.92"/></g></g>
<g id="circular" data-name="Layer 2"><g id="Layer_1-2" data-name="Layer 1"><rect class="cls-1" width="48.97" height="48.97" rx="3.88"/><path class="cls-2" d="M47.33,25.52a2.8,2.8,0,0,1-5.6.1,1.7,1.7,0,0,0-.9-1.59c-2.39-1.53-4.75-3.1-7.12-4.66a1,1,0,0,0-1.08-.09,3,3,0,0,1-2.94-.15.85.85,0,0,0-1,0c-.69.43-1.4.82-2.09,1.26-.44.28-.75.37-1.09-.17s-.2-.86.3-1.15c.68-.4,1.33-.84,2-1.23a1.13,1.13,0,0,0,.66-1.12,2.72,2.72,0,0,1,2.77-2.8,2.67,2.67,0,0,1,2.82,2.81,1.64,1.64,0,0,0,.84,1.55Q38.53,20.62,42.1,23a.93.93,0,0,0,1.08,0A2.78,2.78,0,0,1,47.33,25.52Z"/><path class="cls-2" d="M11.09,12.74a2.9,2.9,0,0,1,1.5.49,1,1,0,0,0,1.16,0c1.48-.9,3-1.8,4.46-2.66.48-.28.5-.67.53-1.13A2.9,2.9,0,0,1,21.38,6.7a2.83,2.83,0,0,1,3,2.32,2.64,2.64,0,0,1-1,2.73,2.58,2.58,0,0,1-3.08.31,1.35,1.35,0,0,0-1.58,0c-1.36.84-2.75,1.63-4.12,2.46a1.55,1.55,0,0,0-.12,2.68c.67.5,1.33,1,2,1.5.48.34.38.65.08,1.05s-.57.57-1,.2c-.65-.52-1.36-1-2-1.51a1.26,1.26,0,0,0-1.49-.23,2.82,2.82,0,0,1-3.27-.82A3,3,0,0,1,8.68,14,2.88,2.88,0,0,1,11.09,12.74Z"/><path class="cls-2" d="M20.9,27.28A4.3,4.3,0,1,1,25.2,23,4.38,4.38,0,0,1,20.9,27.28Z"/><path class="cls-2" d="M14.44,42.4a2.71,2.71,0,0,1-2.81-2.24,2.67,2.67,0,0,1,2-3.26,2,2,0,0,0,1.63-1.53c.82-2.27,1.71-4.51,2.57-6.76.17-.46.31-.88,1-.61s.68.61.45,1.2c-1,2.44-1.87,4.9-2.83,7.34a1.13,1.13,0,0,0,.2,1.29,2.76,2.76,0,0,1,.35,3A2.61,2.61,0,0,1,14.44,42.4Z"/><path class="cls-2" d="M31.32,31.32c.21-.51-.13-.78-.56-1.06-1.67-1.06-3.3-2.15-5-3.19-.53-.34-.66-.65-.31-1.21s.74-.37,1.16-.1c1.59,1,3.19,2,4.77,3.07a1.57,1.57,0,0,0,1.67.16,2.68,2.68,0,0,1,3.06.55,2.79,2.79,0,0,1,.7,3.05,2.62,2.62,0,0,1-2.32,1.85A2.9,2.9,0,0,1,31.32,31.32Z"/><path class="cls-2" d="M3.1,26.52A2.44,2.44,0,0,1,4.68,24a2.5,2.5,0,0,1,3,.41,1.79,1.79,0,0,0,2,.48c1.61-.48,3.25-.82,4.87-1.25.53-.13.84-.06,1,.52s-.09.83-.61,1L9.72,26.51a1.42,1.42,0,0,0-1.14,1,2.67,2.67,0,0,1-3.15,1.86A2.61,2.61,0,0,1,3.1,26.52Z"/><polygon class="cls-2" points="15.41 40.39 14.76 38.9 31.89 31.41 35.25 30.75 41.33 25.58 42.39 26.82 35.98 32.27 32.29 32.99 15.41 40.39"/></g></g>
<g id='message'> 
<path fill-rule="evenodd" clip-rule="evenodd" d="M12.7065 0.166992C16.0583 0.166992 19.2083 1.47016 21.5743 3.83733C26.465 8.72799 26.465 16.6847 21.5743 21.5753C19.1768 23.974 15.9486 25.2433 12.6785 25.2433C10.8958 25.2433 9.10147 24.8665 7.42264 24.0895C6.92797 23.8912 6.4648 23.7045 6.1323 23.7045C5.74964 23.7068 5.23514 23.8842 4.73814 24.0557C3.71847 24.4057 2.44914 24.842 1.50997 23.9063C0.574303 22.9695 1.00597 21.7037 1.35364 20.6852C1.52514 20.1835 1.7013 19.6655 1.7013 19.2735C1.7013 18.9515 1.54614 18.5408 1.30814 17.9493C-0.877031 13.2302 0.133303 7.54266 3.8398 3.83849C6.2058 1.47133 9.35464 0.166992 12.7065 0.166992ZM12.7076 1.91699C9.82247 1.91699 7.1123 3.03933 5.07647 5.07633C1.8868 8.26366 1.0188 13.1578 2.91464 17.2563C3.18764 17.9318 3.4513 18.5898 3.4513 19.2735C3.4513 19.956 3.2168 20.6432 3.0103 21.2498C2.83997 21.7492 2.58214 22.5028 2.7478 22.6685C2.90997 22.8365 3.6683 22.5717 4.1688 22.4002C4.76964 22.1948 5.45097 21.9592 6.12647 21.9545C6.80314 21.9545 7.4413 22.2112 8.1168 22.483C12.255 24.3963 17.1491 23.526 20.3376 20.3387C24.5446 16.1293 24.5446 9.28216 20.3376 5.07516C18.3006 3.03816 15.5916 1.91699 12.7076 1.91699ZM17.3124 12.0235C17.9564 12.0235 18.479 12.545 18.479 13.1901C18.479 13.8353 17.9564 14.3568 17.3124 14.3568C16.6684 14.3568 16.141 13.8353 16.141 13.1901C16.141 12.545 16.6579 12.0235 17.3019 12.0235H17.3124ZM12.6354 12.0235C13.2794 12.0235 13.8021 12.545 13.8021 13.1901C13.8021 13.8353 13.2794 14.3568 12.6354 14.3568C11.9914 14.3568 11.4641 13.8353 11.4641 13.1901C11.4641 12.545 11.9798 12.0235 12.6249 12.0235H12.6354ZM7.95802 12.0235C8.60202 12.0235 9.12469 12.545 9.12469 13.1901C9.12469 13.8353 8.60202 14.3568 7.95802 14.3568C7.31402 14.3568 6.78669 13.8353 6.78669 13.1901C6.78669 12.545 7.30352 12.0235 7.94752 12.0235H7.95802Z"/>

</g>
<g id="chat" data-name="Layer 2">
<g id="Layer_1-2" data-name="Layer 1"><path class="cls-1" d="M29.32,0c6.39,0,12.79,0,19.18,0,6.06,0,9.32,3.11,9.36,9.13q.07,10,0,20c0,6.69-3.27,9.63-9.94,9.46-6-.15-11.94,0-17.91,0a6.26,6.26,0,0,0-5,2.17c-2.16,2.4-4.53,4.6-6.83,6.88-.93.92-1.92,1.77-3.37,1.12s-1.69-1.93-1.66-3.37c0-1.88,0-3.76,0-5.64,0-.78-.29-1.07-1.07-1.07-1.48,0-3-.06-4.43-.1A7.58,7.58,0,0,1,.08,31.2Q-.08,19.49.08,7.78C.14,3.62,3.11.69,7.32.23,11-.17,14.71.08,18.41,0S25.68,0,29.32,0Z"/><circle class="cls-2" cx="12.72" cy="18.02" r="2.52"/><circle class="cls-2" cx="23.26" cy="18.02" r="2.52"/><circle class="cls-2" cx="32.39" cy="18.02" r="2.52"/><circle class="cls-2" cx="42.61" cy="18.02" r="2.52"/></g>
</g>
<g id="market" data-name="Layer 2">
<g id="Layer_1-2" data-name="Layer 1"><path class="cls-1" d="M11.29,15.74C9.11,19.07,6.39,20,3.81,18.51a4.86,4.86,0,0,1-2.53-4.36c-.05-3.73,0-7.46,0-11.19C1.29,1.08,2.13.22,4,0,4.5,0,5,0,5.54,0H46a16.69,16.69,0,0,1,1.87.06c2,.21,2.73,1,2.75,3,0,3.52,0,7,0,10.57,0,2.74-1.35,4.67-3.65,5.32s-4.41-.23-5.92-2.57c-.11-.16-.24-.31-.37-.48-3,4.8-7.62,3.85-9.84,0-1.08,2-2.6,3.28-4.9,3.27S22.14,17.93,21,15.68c-1,2.17-2.55,3.48-4.83,3.49A5.13,5.13,0,0,1,11.29,15.74Z"/><path class="cls-1" d="M33,42.74c-4,0-8-.06-12,0-1.53,0-2.09-.39-2.05-2,.1-4.61,0-9.22.05-13.84,0-1.27-.38-1.77-1.68-1.72-2,.08-4.05.09-6.06,0-1.42-.07-1.76.51-1.74,1.82.06,4.57,0,9.13.05,13.69,0,1.53-.39,2.11-2,2.06-3.22-.11-2.6,0-2.61-2.55,0-6.22,0-12.44-.08-18.66,0-1.13.34-1.47,1.41-1.44a5.33,5.33,0,0,0,4.07-1.63c.63-.62,1-.53,1.68,0,2.74,2.25,5.43,2.25,8.16,0,.65-.53,1-.58,1.68,0,2.73,2.28,5.33,2.27,8.13,0a1,1,0,0,1,1.56,0c2.9,2.31,5.49,2.31,8.28,0,.59-.48,1-.62,1.56,0a5.59,5.59,0,0,0,4.36,1.7c.92-.05,1.14.37,1.13,1.2,0,6.69,0,13.38,0,20.07,0,1.18-.51,1.36-1.5,1.35C41.27,42.72,37.12,42.74,33,42.74ZM27.35,30.2c-.4-.53-.25-.75-.09-1,.71-.95,1.44-1.89,2.14-2.85.21-.28.61-.55.4-.94s-.65-.22-1-.23c-1.09,0-2.18,0-3.27,0s-1.47.42-1.46,1.48c0,3.52,0,7,0,10.57,0,1.13.38,1.55,1.53,1.54q7.79-.07,15.55,0c1.16,0,1.54-.4,1.53-1.54q-.07-5.2,0-10.41c0-1.2-.39-1.67-1.61-1.65-3,.06-5.91,0-8.86,0a1.66,1.66,0,0,0-1.7.95A19.94,19.94,0,0,1,27.35,30.2Z"/><path class="cls-1" d="M25.92,43.5H49.71c2.12,0,2.15,0,2.13,2.19,0,3.18.56,3.13-3.06,3.13H2.45C0,48.82,0,48.82,0,46.32V46c0-2.5,0-2.51,2.44-2.51Z"/></g></g>
<g id="feed" data-name="Layer 2"><g id="Layer_1-2" data-name="Layer 1"><rect class="cls-1" x="0.27" width="22.86" height="22.86" rx="4.81"/><rect class="cls-1" x="24.59" width="22.86" height="22.86" rx="4.81"/><rect class="cls-1" y="26.1" width="22.86" height="22.86" rx="4.81"/><rect class="cls-1" x="24.33" y="26.1" width="22.86" height="22.86" rx="4.81"/><path class="cls-2" d="M30.56,11.44V6.75a1.57,1.57,0,0,1,2.5-1.41L40.6,10a1.57,1.57,0,0,1,0,2.84l-7.48,4.64a1.61,1.61,0,0,1-1.76.12,1.6,1.6,0,0,1-.79-1.54C30.57,14.54,30.56,13,30.56,11.44Z"/><path class="cls-2" d="M12.48,5H10.34c-.39,0-.49.1-.49.49V17c0,.39.09.49.49.49.7,0,1.41,0,2.11,0,.48,0,.56-.08.56-.56V5.48C13,5,12.93,5,12.48,5Z"/><path class="cls-2" d="M8.37,9.66c0-.47-.11-.56-.58-.57H5.69c-.41,0-.52.11-.52.52V17c0,.4.11.51.52.51q1,0,2.07,0c.51,0,.61-.09.61-.6V9.66Z"/><path class="cls-2" d="M17.69,12.18c0-.39-.1-.48-.51-.48H15c-.42,0-.51.09-.51.51,0,.78,0,1.57,0,2.35s0,1.61,0,2.42c0,.32.14.49.48.49h2.25c.33,0,.47-.16.47-.49C17.69,15.38,17.7,13.78,17.69,12.18Z"/><path class="cls-2" d="M10.61,41.21l0-.54a4.81,4.81,0,0,1,1.29-3.62,4.59,4.59,0,0,0,1.47-2.86c0-1.06-.67-1.77-2-1.79A3.76,3.76,0,0,0,9.23,33l-.5-1.31a5.49,5.49,0,0,1,3-.84c2.4,0,3.49,1.49,3.49,3.07,0,1.42-.8,2.45-1.8,3.64a4.12,4.12,0,0,0-1.19,3.07l0,.54Zm-.46,2.93a1.25,1.25,0,1,1,2.49,0,1.25,1.25,0,1,1-2.49,0Z"/><path class="cls-2" d="M35.2,33.06c1.52,0,3,0,4.58,0,1,0,1.22.25,1.22,1.25v6.21c0,.91-.25,1.19-1.16,1.19H30.42c-.9,0-1.15-.27-1.15-1.19,0-2.05,0-4.09,0-6.14,0-1.11.21-1.32,1.35-1.32C32.15,33.05,33.67,33.06,35.2,33.06Zm-.11,7.69c1.39,0,2.79,0,4.18,0,.55,0,.78-.14.77-.73,0-1.77,0-3.53,0-5.3,0-.53-.16-.72-.71-.72Q35.14,34,31,34c-.52,0-.74.14-.73.7,0,1.78,0,3.57,0,5.36,0,.5.15.7.67.68C32.3,40.73,33.69,40.75,35.09,40.75Z"/><path class="cls-2" d="M41.33,38.89a23.8,23.8,0,0,1,.82-5c.12-.59,0-.86-.61-1-2.76-.53-5.51-1.1-8.26-1.68-.5-.11-.66.05-.75.5s0,1.19-.78,1-.1-.75-.14-1.14A1.58,1.58,0,0,1,31.7,31c.2-.82.49-1,1.31-.85l6,1.22c1.16.24,2.31.47,3.46.72.75.16,1,.46.81,1.2-.42,2.14-.86,4.27-1.3,6.4a2.38,2.38,0,0,1-.11.38c-.06.14-.15.31-.32.29s-.16-.23-.16-.38C41.33,39.63,41.33,39.26,41.33,38.89Z"/><path class="cls-2" d="M35.14,40.57H31c-.25,0-.56.08-.65-.28a.66.66,0,0,1,.27-.75c.94-.7,1.89-1.39,2.83-2.11a.56.56,0,0,1,.85.11c.5.56.93.46,1.44,0s.87-.64,1.3-1a.56.56,0,0,1,.81,0,3.51,3.51,0,0,0,.74.54A2.36,2.36,0,0,1,40,39.82c-.06.54-.17.77-.76.76C37.84,40.54,36.49,40.57,35.14,40.57Z"/><path class="cls-2" d="M31.75,36.63a1,1,0,0,1-.89-1.07,1,1,0,0,1,1-.88,1,1,0,0,1,.94,1A1,1,0,0,1,31.75,36.63Z"/>
</g></g>
<g id="Layer_2" data-name="Layer 2">
<g id="Layer_1-2" data-name="Layer 1"><path class="cls-1" d="M24.08,41.61H9.64c-1.58,0-3.14-.12-3.84-1.84s.27-3,1.5-4a4.29,4.29,0,0,0,1.38-3.66c.09-5-.41-10,.27-14.9C9.79,11,13.39,6.92,19.23,4.8c1.43-.51,2.32-1,2.37-2.75,0-1.36,1.13-2.06,2.52-2a2.11,2.11,0,0,1,2.35,2c0,2,1.33,2.42,2.83,3a14.82,14.82,0,0,1,9.89,14c.05,4.25.07,8.5,0,12.75,0,1.82.31,3.28,1.86,4.4a2.86,2.86,0,0,1,1.26,3.56,3.14,3.14,0,0,1-3.29,2Z"/><path class="cls-1" d="M0,21.61a14.45,14.45,0,0,1,2.49-7.73c.62-.85,1.37-1.5,2.41-.77s.74,1.53.21,2.34c-2.51,3.9-2.65,7.79-.06,11.71.58.88.81,1.85-.25,2.52S3,29.54,2.41,28.75A14,14,0,0,1,0,21.61Z"/><path class="cls-1" d="M47.84,21.16a12,12,0,0,1-2.12,7.46c-.59.88-1.31,1.81-2.53,1s-.64-1.66-.11-2.53c2.31-3.86,2.38-7.7-.09-11.52-.57-.89-.85-1.83.24-2.5s1.85,0,2.41.85A11.76,11.76,0,0,1,47.84,21.16Z"/><path class="cls-1" d="M24.05,42.87c1.28,0,2.56,0,3.84,0s1.61.76,1.25,1.94a5.26,5.26,0,0,1-5.38,3.61,5.18,5.18,0,0,1-4.83-3.6c-.36-1.21,0-1.9,1.27-1.95S22.76,42.87,24.05,42.87Z"/></g>
</g>
  // Arrows
  <g id="arrow-down">
    <path fill-rule="evenodd" clip-rule="evenodd" d="M20 12L18.59 10.59L13 16.17V4H11V16.17L5.42 10.58L4 12L12 20L20 12Z" />
  </g>
  <g id="arrow-left">
    <path fill-rule="evenodd" clip-rule="evenodd" d="M20 11H7.83L13.42 5.41L12 4L4 12L12 20L13.41 18.59L7.83 13H20V11Z" />
  </g>
  <g id="arrow-right">
    <path fill-rule="evenodd" clip-rule="evenodd" d="M12 4L10.59 5.41L16.17 11H4V13H16.17L10.59 18.59L12 20L20 12L12 4Z" />
  </g>
  <g id="arrow-up">
    <path fill-rule="evenodd" clip-rule="evenodd" d="M4 12L5.41 13.41L11 7.83V20H13V7.83L18.58 13.42L20 12L12 4L4 12V12Z" />
  </g>
  <g id="caret-down">
    <path fill-rule="evenodd" clip-rule="evenodd" d="M7 10L12 15L17 10H7Z" />
  </g>
  <g id="chevron-down">
    <path fill-rule="evenodd" clip-rule="evenodd" d="M7.41 8.84003L12 13.42L16.59 8.84003L18 10.25L12 16.25L6 10.25L7.41 8.84003Z" />
  </g>
  <g id="chevron-left">
    <path fill-rule="evenodd" clip-rule="evenodd" d="M15.41 17.09L10.83 12.5L15.41 7.91L14 6.5L8 12.5L14 18.5L15.41 17.09Z" />
  </g>
  <g id="chevron-right">
    <path fill-rule="evenodd" clip-rule="evenodd" d="M8.58984 16.34L13.1698 11.75L8.58984 7.16L9.99984 5.75L15.9998 11.75L9.99984 17.75L8.58984 16.34Z" />
  </g>
  <g id="chevron-up">
    <path fill-rule="evenodd" clip-rule="evenodd" d="M7.41 15.41L12 10.83L16.59 15.41L18 14L12 8L6 14L7.41 15.41Z" />
  </g>
  <g id="toggle-up">
    <path fill-rule="evenodd" clip-rule="evenodd" d="M7 10L12 5L17 10H7Z" />
  </g>
  <g id="toggle-down">
    <path fill-rule="evenodd" clip-rule="evenodd" d="M17 14L12 19L7 14L17 14Z" />
  </g>

  // Tools
  <g id="activity">
    <path fill-rule="evenodd" clip-rule="evenodd" d="M13 3C8.03 3 4 7.03 4 12H1L4.89 15.89L4.96 16.03L9 12H6C6 8.13 9.13 5 13 5C16.87 5 20 8.13 20 12C20 15.87 16.87 19 13 19C11.07 19 9.32 18.21 8.06 16.94L6.64 18.36C8.27 19.99 10.51 21 13 21C17.97 21 22 16.97 22 12C22 7.03 17.97 3 13 3ZM12 8V13L16.28 15.54L17 14.33L13.5 12.25V8H12Z" />
  </g>
  <g id="attachment">
    <path fill-rule="evenodd" clip-rule="evenodd" d="M16.5 6V17.5C16.5 19.71 14.71 21.5 12.5 21.5C10.29 21.5 8.5 19.71 8.5 17.5V5C8.5 3.62 9.62 2.5 11 2.5C12.38 2.5 13.5 3.62 13.5 5V15.5C13.5 16.05 13.05 16.5 12.5 16.5C11.95 16.5 11.5 16.05 11.5 15.5V6H10V15.5C10 16.88 11.12 18 12.5 18C13.88 18 15 16.88 15 15.5V5C15 2.79 13.21 1 11 1C8.79 1 7 2.79 7 5V17.5C7 20.54 9.46 23 12.5 23C15.54 23 18 20.54 18 17.5V6H16.5Z" />
  </g>
  <g id="calendar">
    <path fill-rule="evenodd" clip-rule="evenodd" d="M9 11H7V13H9V11ZM13 11H11V13H13V11ZM17 11H15V13H17V11ZM19 4H18V2H16V4H8V2H6V4H5C3.89 4 3.01 4.9 3.01 6L3 20C3 21.1 3.89 22 5 22H19C20.1 22 21 21.1 21 20V6C21 4.9 20.1 4 19 4ZM19 20H5V9H19V20Z" />
  </g>
  <g id="cancel">
    <path fill-rule="evenodd" clip-rule="evenodd" d="M19 6.41L17.59 5L12 10.59L6.41 5L5 6.41L10.59 12L5 17.59L6.41 19L12 13.41L17.59 19L19 17.59L13.41 12L19 6.41Z" />
  </g>
  <g id="confirm">
    <path fill-rule="evenodd" clip-rule="evenodd" d="M8.99991 16.17L4.82991 12L3.40991 13.41L8.99991 19L20.9999 7.00003L19.5899 5.59003L8.99991 16.17Z" />
  </g>
  <g id="comments">
    <path fill-rule="evenodd" clip-rule="evenodd" d="M21.99 4C21.99 2.9 21.1 2 20 2H4C2.9 2 2 2.9 2 4V16C2 17.1 2.9 18 4 18H18L22 22L21.99 4ZM18 14H6V12H18V14ZM18 11H6V9H18V11ZM18 8H6V6H18V8Z" />
  </g>
  <g id="dashboard">
    <path fill-rule="evenodd" clip-rule="evenodd" d="M19 3H5C3.9 3 3 3.9 3 5V19C3 20.1 3.9 21 5 21H19C20.1 21 21 20.1 21 19V5C21 3.9 20.1 3 19 3ZM9 17H7V10H9V17ZM13 17H11V7H13V17ZM17 17H15V13H17V17Z" />
  </g>
  <g id="decode">
    <path fill-rule="evenodd" clip-rule="evenodd" d="M17.6498 6.35C16.1998 4.9 14.2098 4 11.9998 4C7.57977 4 4.00977 7.58 4.00977 12C4.00977 16.42 7.57977 20 11.9998 20C15.7298 20 18.8398 17.45 19.7298 14H17.6498C16.8298 16.33 14.6098 18 11.9998 18C8.68977 18 5.99977 15.31 5.99977 12C5.99977 8.69 8.68977 6 11.9998 6C13.6598 6 15.1398 6.69 16.2198 7.78L12.9998 11H19.9998V4L17.6498 6.35Z" />
  </g>
  <g id="delete">
    <path fill-rule="evenodd" clip-rule="evenodd" d="M6 19C6 20.1 6.9 21 8 21H16C17.1 21 18 20.1 18 19V7H6V19ZM8.46 11.88L9.87 10.47L12 12.59L14.12 10.47L15.53 11.88L13.41 14L15.53 16.12L14.12 17.53L12 15.41L9.88 17.53L8.47 16.12L10.59 14L8.46 11.88ZM15.5 4L14.5 3H9.5L8.5 4H5V6H19V4H15.5Z" />
  </g>
  <g id="dollar-sign">
    <path fill-rule="evenodd" clip-rule="evenodd" d="M11.8001 10.9C9.53007 10.31 8.80007 9.7 8.80007 8.75C8.80007 7.66 9.81007 6.9 11.5001 6.9C13.2801 6.9 13.9401 7.75 14.0001 9H16.2101C16.1401 7.28 15.0901 5.7 13.0001 5.19V3H10.0001V5.16C8.06007 5.58 6.50007 6.84 6.50007 8.77C6.50007 11.08 8.41007 12.23 11.2001 12.9C13.7001 13.5 14.2001 14.38 14.2001 15.31C14.2001 16 13.7101 17.1 11.5001 17.1C9.44007 17.1 8.63007 16.18 8.52007 15H6.32007C6.44007 17.19 8.08007 18.42 10.0001 18.83V21H13.0001V18.85C14.9501 18.48 16.5001 17.35 16.5001 15.3C16.5001 12.46 14.0701 11.49 11.8001 10.9Z" />
  </g>
  <g id="download">
    <path fill-rule="evenodd" clip-rule="evenodd" d="M19 9H15V3H9V9H5L12 16L19 9ZM5 18V20H19V18H5Z" />
  </g>
  <g id="download-excel">
    <path fill-rule="evenodd" clip-rule="evenodd" d="M17 8V3L22 8H17ZM8.25 0.75C7.0125 0.75 6.01125 1.7625 6.01125 3L6 21C6 22.2375 7.00125 23.25 8.23875 23.25H21.75C22.9875 23.25 24 22.2375 24 21V7.5L17.25 0.75H8.25ZM6 6H13.3333C14.25 6 15 6.75 15 7.66667V19.3333C15 20.25 14.25 21 13.3333 21H6C6 21 6 19.9842 6 19.3333C6 14.7772 6 7.66667 6 7.66667C6 6.75 6 6 6 6Z" fill="#15AC54"/>
    <path fill-rule="evenodd" clip-rule="evenodd" d="M3.22222 8H11.7778C12.45 8 13 8.55 13 9.22222V17.7778C13 18.45 12.45 19 11.7778 19H3.22222C2.55 19 2 18.45 2 17.7778V9.22222C2 8.55 2.55 8 3.22222 8Z" fill="#15AC54"/>
    <path d="M4 17L6.573 13.3472L4.24138 10H6.01834L7.52825 12.249L9.00734 10H10.7689L8.427 13.3997L11 17H9.16654L7.49743 14.5791L5.82318 17H4Z" fill="white"/>
  </g>
  <g id="edit">
    <path fill-rule="evenodd" clip-rule="evenodd" d="M3 17.25V21H6.75L17.81 9.94L14.06 6.19L3 17.25ZM20.71 7.04C21.1 6.65 21.1 6.02 20.71 5.63L18.37 3.29C17.98 2.9 17.35 2.9 16.96 3.29L15.13 5.12L18.88 8.87L20.71 7.04Z" />
  </g>
  <g id="filters">
    <path fill-rule="evenodd" clip-rule="evenodd" d="M3 18H9V16H3V18ZM3 6V8H21V6H3ZM3 13H15V11H3V13Z"/>
  </g>
  <g id="emoji">
    <path fill-rule="evenodd" clip-rule="evenodd" d="M11.99 2C6.47 2 2 6.48 2 12C2 17.52 6.47 22 11.99 22C17.52 22 22 17.52 22 12C22 6.48 17.52 2 11.99 2ZM12 20C7.58 20 4 16.42 4 12C4 7.58 7.58 4 12 4C16.42 4 20 7.58 20 12C20 16.42 16.42 20 12 20ZM15.5 11C16.33 11 17 10.33 17 9.5C17 8.67 16.33 8 15.5 8C14.67 8 14 8.67 14 9.5C14 10.33 14.67 11 15.5 11ZM8.5 11C9.33 11 10 10.33 10 9.5C10 8.67 9.33 8 8.5 8C7.67 8 7 8.67 7 9.5C7 10.33 7.67 11 8.5 11ZM12 17.5C14.33 17.5 16.31 16.04 17.11 14H6.89C7.69 16.04 9.67 17.5 12 17.5Z" />
  </g>
  <g id="email">
    <path fill-rule="evenodd" clip-rule="evenodd" d="M20 4H4C2.9 4 2.01 4.9 2.01 6L2 18C2 19.1 2.9 20 4 20H20C21.1 20 22 19.1 22 18V6C22 4.9 21.1 4 20 4ZM20 8L12 13L4 8V6L12 11L20 6V8Z" />
  </g>
  <g id="folder">
    <path fill-rule="evenodd" clip-rule="evenodd" d="M10 4H4C2.9 4 2.01 4.9 2.01 6L2 18C2 19.1 2.9 20 4 20H20C21.1 20 22 19.1 22 18V8C22 6.9 21.1 6 20 6H12L10 4Z" />
  </g>
  <g id="folder-open">
    <path fill-rule="evenodd" clip-rule="evenodd" d="M6 12C4.9 12 5 12 4.01 14L2.21294 17.5762C2.07292 17.8549 1.98245 18.1669 2.05612 18.4699C2.26891 19.3451 3.0617 20 4 20H20C21.1 20 21 20 22 18L24 14C25 12 23.1 12 22 12H6Z" />
    <path d="M4.0001 4H10.0001L12.0001 6H20.0001C21.1001 6 22.0001 6.9 22.0001 8V10.5H5.70486C4.50024 10.5 4.44073 10.4617 3.96539 11.3197C3.80597 11.6075 3.61491 11.9523 3.36415 12.3636L2.94497 13.1452C2.69915 13.6036 2.00391 13.4286 2.00435 12.9085L2.0101 6C2.0101 4.9 2.9001 4 4.0001 4Z" />
  </g>
  <g id="info">
    <path fill-rule="evenodd" clip-rule="evenodd" d="M11 17H13V11H11V17ZM12 2C6.48 2 2 6.48 2 12C2 17.52 6.48 22 12 22C17.52 22 22 17.52 22 12C22 6.48 17.52 2 12 2ZM12 20C7.59 20 4 16.41 4 12C4 7.59 7.59 4 12 4C16.41 4 20 7.59 20 12C20 16.41 16.41 20 12 20ZM11 9H13V7H11V9Z" />
  </g>
  <g id="like">
    <path fill-rule="evenodd" clip-rule="evenodd" d="M16.5 3C14.76 3 13.09 3.81 12 5.09C10.91 3.81 9.24 3 7.5 3C4.42 3 2 5.42 2 8.5C2 12.28 5.4 15.36 10.55 20.04L12 21.35L13.45 20.03C18.6 15.36 22 12.28 22 8.5C22 5.42 19.58 3 16.5 3ZM12.1 18.55L12 18.65L11.9 18.55C7.14 14.24 4 11.39 4 8.5C4 6.5 5.5 5 7.5 5C9.04 5 10.54 5.99 11.07 7.36H12.94C13.46 5.99 14.96 5 16.5 5C18.5 5 20 6.5 20 8.5C20 11.39 16.86 14.24 12.1 18.55Z" />
  </g>
  <g id="list">
    <path fill-rule="evenodd" clip-rule="evenodd" d="M3 13H5V11H3V13ZM3 17H5V15H3V17ZM3 9H5V7H3V9ZM7 13H21V11H7V13ZM7 17H21V15H7V17ZM7 7V9H21V7H7Z" />
  </g>
  <g id="loader">
    <path fill-rule="evenodd" clip-rule="evenodd" d="M13 1V7H11V1H13Z" />
    <path opacity="0.125" fill-rule="evenodd" clip-rule="evenodd" d="M4.92984 3.51581L9.17405 7.76002L7.75984 9.17424L3.51562 4.93002L4.92984 3.51581Z" />
    <path opacity="0.25" fill-rule="evenodd" clip-rule="evenodd" d="M1 11H7V13H1V11Z" />
    <path opacity="0.375" fill-rule="evenodd" clip-rule="evenodd" d="M9.17405 16.24L4.92984 20.4842L3.51562 19.07L7.75984 14.8258L9.17405 16.24Z" />
    <path opacity="0.5" fill-rule="evenodd" clip-rule="evenodd" d="M13 17V23H11V17H13Z" />
    <path opacity="0.625" fill-rule="evenodd" clip-rule="evenodd" d="M16.2399 14.8258L20.4841 19.07L19.0699 20.4842L14.8257 16.24L16.2399 14.8258Z" />
    <path opacity="0.75" fill-rule="evenodd" clip-rule="evenodd" d="M17 11H23V13H17V11Z" />
    <path opacity="0.875" fill-rule="evenodd" clip-rule="evenodd" d="M20.4841 4.93002L16.2399 9.17424L14.8257 7.76002L19.0699 3.51581L20.4841 4.93002Z" />
  </g>
  <g id="menu">
    <path fill-rule="evenodd" clip-rule="evenodd" d="M3 18H21V16H3V18ZM3 13H21V11H3V13ZM3 6V8H21V6H3Z" />
  </g>
  <g id="notification">
    <path fill-rule="evenodd" clip-rule="evenodd" d="M12 22C12.14 22 12.27 21.99 12.4 21.96C13.05 21.82 13.58 21.38 13.84 20.78C13.94 20.54 13.99 20.28 13.99 20H9.99C10 21.1 10.89 22 12 22ZM18 11C18 7.93 16.36 5.36 13.5 4.68V4C13.5 3.17 12.83 2.5 12 2.5C11.17 2.5 10.5 3.17 10.5 4V4.68C7.63 5.36 6 7.92 6 11V16L4 18V19H20V18L18 16V11Z" />
  </g>
  <g id="password">
    <path fill-rule="evenodd" clip-rule="evenodd" d="M12 17C13.1 17 14 16.1 14 15C14 13.9 13.1 13 12 13C10.9 13 10 13.9 10 15C10 16.1 10.9 17 12 17ZM18 8H17V6C17 3.24 14.76 1 12 1C9.24 1 7 3.24 7 6V8H6C4.9 8 4 8.9 4 10V20C4 21.1 4.9 22 6 22H18C19.1 22 20 21.1 20 20V10C20 8.9 19.1 8 18 8ZM8.9 6C8.9 4.29 10.29 2.9 12 2.9C13.71 2.9 15.1 4.29 15.1 6V8H8.9V6ZM18 20H6V10H18V20Z" />
  </g>
  <g id="play">
    <path fill-rule="evenodd" clip-rule="evenodd" d="M8 5V19L19 12L8 5Z" />
  </g>
  <g id="print">
    <path fill-rule="evenodd" clip-rule="evenodd" d="M19 8H5C3.34 8 2 9.34 2 11V17H6V21H18V17H22V11C22 9.34 20.66 8 19 8ZM16 19H8V14H16V19ZM19 12C18.45 12 18 11.55 18 11C18 10.45 18.45 10 19 10C19.55 10 20 10.45 20 11C20 11.55 19.55 12 19 12ZM18 3H6V7H18V3Z" />
  </g>
  <g id="save">
    <path fill-rule="evenodd" clip-rule="evenodd" d="M17 3H5C3.89 3 3 3.9 3 5V19C3 20.1 3.89 21 5 21H19C20.1 21 21 20.1 21 19V7L17 3ZM12 19C10.34 19 9 17.66 9 16C9 14.34 10.34 13 12 13C13.66 13 15 14.34 15 16C15 17.66 13.66 19 12 19ZM15 9H5V5H15V9Z" />
  </g>
  <g id="search">
    <path fill-rule="evenodd" clip-rule="evenodd" d="M15.5 14H14.71L14.43 13.73C15.41 12.59 16 11.11 16 9.5C16 5.91 13.09 3 9.5 3C5.91 3 3 5.91 3 9.5C3 13.09 5.91 16 9.5 16C11.11 16 12.59 15.41 13.73 14.43L14 14.71V15.5L19 20.49L20.49 19L15.5 14ZM9.5 14C7.01 14 5 11.99 5 9.5C5 7.01 7.01 5 9.5 5C11.99 5 14 7.01 14 9.5C14 11.99 11.99 14 9.5 14Z" />
  </g>
  <g id="send">
    <path fill-rule="evenodd" clip-rule="evenodd" d="M2.01 21L23 12L2.01 3L2 10L17 12L2 14L2.01 21Z" />
  </g>
  <g id="sort">
    <path fill-rule="evenodd" clip-rule="evenodd" d="M16.9998 9.99994H6.99976L11.9998 4.99994L16.9998 9.99994ZM6.99976 13.9999H16.9998L11.9998 18.9999L6.99976 13.9999Z" />
  </g>
  <g id="trash">
    <path fill-rule="evenodd" clip-rule="evenodd" d="M6 19C6 20.1 6.9 21 8 21H16C17.1 21 18 20.1 18 19V7H6V19ZM19 4H15.5L14.5 3H9.5L8.5 4H5V6H19V4Z" />
  </g>
  <g id="undo">
    <path fill-rule="evenodd" clip-rule="evenodd" d="M12.5 8C9.85 8 7.45 8.99 5.6 10.6L2 7V16H11L7.38 12.38C8.77 11.22 10.54 10.5 12.5 10.5C16.04 10.5 19.05 12.81 20.1 16L22.47 15.22C21.08 11.03 17.15 8 12.5 8Z" />
  </g>
  <g id="upload">
    <path fill-rule="evenodd" clip-rule="evenodd" d="M19.35 10.04C18.67 6.59 15.64 4 12 4C9.11 4 6.6 5.64 5.35 8.04C2.34 8.36 0 10.91 0 14C0 17.31 2.69 20 6 20H19C21.76 20 24 17.76 24 15C24 12.36 21.95 10.22 19.35 10.04ZM14 13V17H10V13H7L12 8L17 13H14Z" />
  </g>
  <g id="user">
    <path fill-rule="evenodd" clip-rule="evenodd" d="M12 12C14.21 12 16 10.21 16 8C16 5.79 14.21 4 12 4C9.79 4 8 5.79 8 8C8 10.21 9.79 12 12 12ZM12 14C9.33 14 4 15.34 4 18V20H20V18C20 15.34 14.67 14 12 14Z" />
  </g>
  <g id="view">
    <path fill-rule="evenodd" clip-rule="evenodd" d="M12 4.5C7 4.5 2.73 7.61 1 12C2.73 16.39 7 19.5 12 19.5C17 19.5 21.27 16.39 23 12C21.27 7.61 17 4.5 12 4.5ZM12 17C9.24 17 7 14.76 7 12C7 9.24 9.24 7 12 7C14.76 7 17 9.24 17 12C17 14.76 14.76 17 12 17ZM12 9C10.34 9 9 10.34 9 12C9 13.66 10.34 15 12 15C13.66 15 15 13.66 15 12C15 10.34 13.66 9 12 9Z" />
  </g>

  // Circles
  <g id="add-circle">
    <path fill-rule="evenodd" clip-rule="evenodd" d="M12 2C6.48 2 2 6.48 2 12C2 17.52 6.48 22 12 22C17.52 22 22 17.52 22 12C22 6.48 17.52 2 12 2ZM17 13H13V17H11V13H7V11H11V7H13V11H17V13Z" />
  </g>
  <g id="check-circle">
    <path fill-rule="evenodd" clip-rule="evenodd" d="M12 2C6.48 2 2 6.48 2 12C2 17.52 6.48 22 12 22C17.52 22 22 17.52 22 12C22 6.48 17.52 2 12 2ZM10 17L5 12L6.41 10.59L10 14.17L17.59 6.58L19 8L10 17Z" />
  </g>
  <g id="cancel-circle">
    <path fill-rule="evenodd" clip-rule="evenodd" d="M12 2C6.47 2 2 6.47 2 12C2 17.53 6.47 22 12 22C17.53 22 22 17.53 22 12C22 6.47 17.53 2 12 2ZM17 15.59L15.59 17L12 13.41L8.41 17L7 15.59L10.59 12L7 8.41L8.41 7L12 10.59L15.59 7L17 8.41L13.41 12L17 15.59Z" />
  </g>
  <g id="caret-down-circle">
    <path fill-rule="evenodd" clip-rule="evenodd" d="M12 2C6.48 2 2 6.48 2 12C2 17.52 6.48 22 12 22C17.52 22 22 17.52 22 12C22 6.48 17.52 2 12 2ZM12 14L8 10H16L12 14Z" />
  </g>
  <g id="star-circle">
    <path fill-rule="evenodd" clip-rule="evenodd" d="M11.99 2C6.47 2 2 6.48 2 12C2 17.52 6.47 22 11.99 22C17.52 22 22 17.52 22 12C22 6.48 17.52 2 11.99 2ZM16.23 18L12 15.45L7.77 18L8.89 13.19L5.16 9.96L10.08 9.54L12 5L13.92 9.53L18.84 9.95L15.11 13.18L16.23 18Z" />
  </g>

  // Forms
  <g id="checkmark">
    <path fill-rule="evenodd" clip-rule="evenodd" d="M9.00016 16.17L4.83016 12L3.41016 13.41L9.00016 19L21.0002 6.99997L19.5902 5.58997L9.00016 16.17Z" />
  </g>
  <g id="radio">
    <path fill-rule="evenodd" clip-rule="evenodd" d="M12 20C16.4183 20 20 16.4183 20 12C20 7.58172 16.4183 4 12 4C7.58172 4 4 7.58172 4 12C4 16.4183 7.58172 20 12 20Z" />
  </g>



  // Feedback
  <g id="error">
    <path opacity="0.2" fill-rule="evenodd" clip-rule="evenodd" d="M12 2C6.48 2 2 6.48 2 12C2 17.52 6.48 22 12 22C17.52 22 22 17.52 22 12C22 6.48 17.52 2 12 2Z" />
    <path fill-rule="evenodd" clip-rule="evenodd" d="M17 15.59L15.59 17L12 13.41L8.41 17L7 15.59L10.59 12L7 8.41L8.41 7L12 10.59L15.59 7L17 8.41L13.41 12L17 15.59Z" />
  </g>
  <g id="help">
    <path opacity="0.2" fill-rule="evenodd" clip-rule="evenodd" d="M12 2C6.48 2 2 6.48 2 12C2 17.52 6.48 22 12 22C17.52 22 22 17.52 22 12C22 6.48 17.52 2 12 2Z" />
    <path fill-rule="evenodd" clip-rule="evenodd" d="M13 19H11V17H13V19Z" />
    <path fill-rule="evenodd" clip-rule="evenodd" d="M15.07 11.25L14.17 12.17C13.45 12.9 13 13.5 13 15H11V14.5C11 13.4 11.45 12.4 12.17 11.67L13.41 10.41C13.78 10.05 14 9.55 14 9C14 7.9 13.1 7 12 7C10.9 7 10 7.9 10 9H8C8 6.79 9.79 5 12 5C14.21 5 16 6.79 16 9C16 9.88 15.64 10.68 15.07 11.25Z" />
  </g>
  <g id="success">
    <path opacity="0.2" fill-rule="evenodd" clip-rule="evenodd" d="M12 2C6.48 2 2 6.48 2 12C2 17.52 6.48 22 12 22C17.52 22 22 17.52 22 12C22 6.48 17.52 2 12 2Z" />
    <path fill-rule="evenodd" clip-rule="evenodd" d="M10 17L5 12L6.41 10.59L10 14.17L17.59 6.58002L19 8.00002L10 17Z" />
  </g>
  <g id="warning">
    <path opacity="0.2" fill-rule="evenodd" clip-rule="evenodd" d="M12 2C6.48 2 2 6.48 2 12C2 17.52 6.48 22 12 22C17.52 22 22 17.52 22 12C22 6.48 17.52 2 12 2Z" />
    <path fill-rule="evenodd" clip-rule="evenodd" d="M13 17H11V15H13V17Z" />
    <path fill-rule="evenodd" clip-rule="evenodd" d="M13 13H11V7H13V13Z" />
  </g>

  // Menu
  <g id="accounting-tasks">
    <path fill-rule="evenodd" clip-rule="evenodd" d="M19 2H14.82C14.4 0.84 13.3 0 12 0C10.7 0 9.6 0.84 9.18 2H5C3.9 2 3 2.9 3 4V20C3 21.1 3.9 22 5 22H19C20.1 22 21 21.1 21 20V4C21 2.9 20.1 2 19 2ZM12 2C12.55 2 13 2.45 13 3C13 3.55 12.55 4 12 4C11.45 4 11 3.55 11 3C11 2.45 11.45 2 12 2ZM19 20H5V4H7V7H17V4H19V20Z" />
  </g>
  <g id="am-finance">
    <path fill-rule="evenodd" clip-rule="evenodd" d="M12 2C6.48 2 2 6.48 2 12C2 17.52 6.48 22 12 22C17.52 22 22 17.52 22 12C22 6.48 17.52 2 12 2ZM13.41 18.09V20H10.74V18.07C9.03 17.71 7.58 16.61 7.47 14.67H9.43C9.53 15.72 10.25 16.54 12.08 16.54C14.04 16.54 14.48 15.56 14.48 14.95C14.48 14.12 14.04 13.34 11.81 12.81C9.33 12.21 7.63 11.19 7.63 9.14C7.63 7.42 9.02 6.3 10.74 5.93V4H13.41V5.95C15.27 6.4 16.2 7.81 16.26 9.34H14.3C14.25 8.23 13.66 7.47 12.08 7.47C10.58 7.47 9.68 8.15 9.68 9.11C9.68 9.95 10.33 10.5 12.35 11.02C14.37 11.54 16.53 12.41 16.53 14.93C16.52 16.76 15.15 17.76 13.41 18.09Z" />
  </g>
  <g id="daily-sales">
    <path fill-rule="evenodd" clip-rule="evenodd" d="M12 2C6.48 2 2 6.48 2 12C2 17.52 6.48 22 12 22C17.52 22 22 17.52 22 12C22 6.48 17.52 2 12 2ZM10 17L5 12L6.41 10.59L10 14.17L17.59 6.58L19 8L10 17Z" />
  </g>
  <g id="dashboard">
    <path fill-rule="evenodd" clip-rule="evenodd" d="M19 3H5C3.9 3 3 3.9 3 5V19C3 20.1 3.9 21 5 21H19C20.1 21 21 20.1 21 19V5C21 3.9 20.1 3 19 3ZM9 17H7V10H9V17ZM13 17H11V7H13V17ZM17 17H15V13H17V17Z" />
  </g>
  <g id="deal-tasks">
    <path fill-rule="evenodd" clip-rule="evenodd" d="M19 3H14.82C14.4 1.84 13.3 1 12 1C10.7 1 9.6 1.84 9.18 3H5C3.9 3 3 3.9 3 5V19C3 20.1 3.9 21 5 21H19C20.1 21 21 20.1 21 19V5C21 3.9 20.1 3 19 3ZM12 3C12.55 3 13 3.45 13 4C13 4.55 12.55 5 12 5C11.45 5 11 4.55 11 4C11 3.45 11.45 3 12 3ZM10 17L6 13L7.41 11.59L10 14.17L16.59 7.58L18 9L10 17Z" />
  </g>
  <g id="delivery-log">
    <path fill-rule="evenodd" clip-rule="evenodd" d="M14 10H2V12H14V10ZM14 6H2V8H14V6ZM2 16H10V14H2V16ZM21.5 11.5L23 13L16.01 20L11.5 15.5L13 14L16.01 17L21.5 11.5Z" />
  </g>
  <g id="email-settings">
    <path fill-rule="evenodd" clip-rule="evenodd" d="M19.4301 12.98C19.4701 12.66 19.5001 12.34 19.5001 12C19.5001 11.66 19.4701 11.34 19.4301 11.02L21.5401 9.37C21.7301 9.22 21.7801 8.95 21.6601 8.73L19.6601 5.27C19.5401 5.05 19.2701 4.97 19.0501 5.05L16.5601 6.05C16.0401 5.65 15.4801 5.32 14.8701 5.07L14.4901 2.42C14.4601 2.18 14.2501 2 14.0001 2H10.0001C9.75008 2 9.54008 2.18 9.51008 2.42L9.13008 5.07C8.52008 5.32 7.96008 5.66 7.44008 6.05L4.95008 5.05C4.72008 4.96 4.46008 5.05 4.34008 5.27L2.34008 8.73C2.21008 8.95 2.27008 9.22 2.46008 9.37L4.57008 11.02C4.53008 11.34 4.50008 11.67 4.50008 12C4.50008 12.33 4.53008 12.66 4.57008 12.98L2.46008 14.63C2.27008 14.78 2.22008 15.05 2.34008 15.27L4.34008 18.73C4.46008 18.95 4.73008 19.03 4.95008 18.95L7.44008 17.95C7.96008 18.35 8.52008 18.68 9.13008 18.93L9.51008 21.58C9.54008 21.82 9.75008 22 10.0001 22H14.0001C14.2501 22 14.4601 21.82 14.4901 21.58L14.8701 18.93C15.4801 18.68 16.0401 18.34 16.5601 17.95L19.0501 18.95C19.2801 19.04 19.5401 18.95 19.6601 18.73L21.6601 15.27C21.7801 15.05 21.7301 14.78 21.5401 14.63L19.4301 12.98ZM12.0001 15.5C10.0701 15.5 8.50008 13.93 8.50008 12C8.50008 10.07 10.0701 8.5 12.0001 8.5C13.9301 8.5 15.5001 10.07 15.5001 12C15.5001 13.93 13.9301 15.5 12.0001 15.5Z" />
  </g>
  <g id="fallout">
    <path fill-rule="evenodd" clip-rule="evenodd" d="M1 21H23L12 2L1 21ZM13 18H11V16H13V18ZM13 14H11V10H13V14Z" />
  </g>
  <g id="forms">
    <path fill-rule="evenodd" clip-rule="evenodd" d="M14 2H6C4.9 2 4.01 2.9 4.01 4L4 20C4 21.1 4.89 22 5.99 22H18C19.1 22 20 21.1 20 20V8L14 2ZM16 18H8V16H16V18ZM16 14H8V12H16V14ZM13 9V3.5L18.5 9H13Z" />
  </g>
  <g id="inventory">
    <path fill-rule="evenodd" clip-rule="evenodd" d="M20 8H17V4H3C1.9 4 1 4.9 1 6V17H3C3 18.66 4.34 20 6 20C7.66 20 9 18.66 9 17H15C15 18.66 16.34 20 18 20C19.66 20 21 18.66 21 17H23V12L20 8ZM6 18.5C5.17 18.5 4.5 17.83 4.5 17C4.5 16.17 5.17 15.5 6 15.5C6.83 15.5 7.5 16.17 7.5 17C7.5 17.83 6.83 18.5 6 18.5ZM19.5 9.5L21.46 12H17V9.5H19.5ZM18 18.5C17.17 18.5 16.5 17.83 16.5 17C16.5 16.17 17.17 15.5 18 15.5C18.83 15.5 19.5 16.17 19.5 17C19.5 17.83 18.83 18.5 18 18.5Z" />
  </g>
  <g id="log-out">
    <path fill-rule="evenodd" clip-rule="evenodd" d="M13 3H11V13H13V3ZM17.83 5.17L16.41 6.59C17.99 7.86 19 9.81 19 12C19 15.87 15.87 19 12 19C8.13 19 5 15.87 5 12C5 9.81 6.01 7.86 7.58 6.58L6.17 5.17C4.23 6.82 3 9.26 3 12C3 16.97 7.03 21 12 21C16.97 21 21 16.97 21 12C21 9.26 19.77 6.82 17.83 5.17Z" />
  </g>
  <g id="order">
    <path fill-rule="evenodd" clip-rule="evenodd" d="M7 18C5.9 18 5.01 18.9 5.01 20C5.01 21.1 5.9 22 7 22C8.1 22 9 21.1 9 20C9 18.9 8.1 18 7 18ZM1 2V4H3L6.6 11.59L5.25 14.04C5.09 14.32 5 14.65 5 15C5 16.1 5.9 17 7 17H19V15H7.42C7.28 15 7.17 14.89 7.17 14.75L7.2 14.63L8.1 13H15.55C16.3 13 16.96 12.59 17.3 11.97L20.88 5.48C20.96 5.34 21 5.17 21 5C21 4.45 20.55 4 20 4H5.21L4.27 2H1ZM17 18C15.9 18 15.01 18.9 15.01 20C15.01 21.1 15.9 22 17 22C18.1 22 19 21.1 19 20C19 18.9 18.1 18 17 18Z" />
  </g>
  <g id="profile">
    <path fill-rule="evenodd" clip-rule="evenodd" d="M12 2C6.48 2 2 6.48 2 12C2 17.52 6.48 22 12 22C17.52 22 22 17.52 22 12C22 6.48 17.52 2 12 2V2ZM12 5C13.66 5 15 6.34 15 8C15 9.66 13.66 11 12 11C10.34 11 9 9.66 9 8C9 6.34 10.34 5 12 5V5ZM12 19.2C9.5 19.2 7.29 17.92 6 15.98C6.03 13.99 10 12.9 12 12.9C13.99 12.9 17.97 13.99 18 15.98C16.71 17.92 14.5 19.2 12 19.2V19.2Z" />
  </g>
  <g id="settings">
    <path fill-rule="evenodd" clip-rule="evenodd" d="M19.4301 12.98C19.4701 12.66 19.5001 12.34 19.5001 12C19.5001 11.66 19.4701 11.34 19.4301 11.02L21.5401 9.37C21.7301 9.22 21.7801 8.95 21.6601 8.73L19.6601 5.27C19.5401 5.05 19.2701 4.97 19.0501 5.05L16.5601 6.05C16.0401 5.65 15.4801 5.32 14.8701 5.07L14.4901 2.42C14.4601 2.18 14.2501 2 14.0001 2H10.0001C9.75008 2 9.54008 2.18 9.51008 2.42L9.13008 5.07C8.52008 5.32 7.96008 5.66 7.44008 6.05L4.95008 5.05C4.72008 4.96 4.46008 5.05 4.34008 5.27L2.34008 8.73C2.21008 8.95 2.27008 9.22 2.46008 9.37L4.57008 11.02C4.53008 11.34 4.50008 11.67 4.50008 12C4.50008 12.33 4.53008 12.66 4.57008 12.98L2.46008 14.63C2.27008 14.78 2.22008 15.05 2.34008 15.27L4.34008 18.73C4.46008 18.95 4.73008 19.03 4.95008 18.95L7.44008 17.95C7.96008 18.35 8.52008 18.68 9.13008 18.93L9.51008 21.58C9.54008 21.82 9.75008 22 10.0001 22H14.0001C14.2501 22 14.4601 21.82 14.4901 21.58L14.8701 18.93C15.4801 18.68 16.0401 18.34 16.5601 17.95L19.0501 18.95C19.2801 19.04 19.5401 18.95 19.6601 18.73L21.6601 15.27C21.7801 15.05 21.7301 14.78 21.5401 14.63L19.4301 12.98ZM12.0001 15.5C10.0701 15.5 8.50008 13.93 8.50008 12C8.50008 10.07 10.0701 8.5 12.0001 8.5C13.9301 8.5 15.5001 10.07 15.5001 12C15.5001 13.93 13.9301 15.5 12.0001 15.5Z" />
  </g>

  // ???
  <g id="assignment-returned">
    <path fill-rule="evenodd" clip-rule="evenodd" d="M19 3H14.82C14.4 1.84 13.3 1 12 1C10.7 1 9.6 1.84 9.18 3H5C3.9 3 3 3.9 3 5V19C3 20.1 3.9 21 5 21H19C20.1 21 21 20.1 21 19V5C21 3.9 20.1 3 19 3ZM12 3C12.55 3 13 3.45 13 4C13 4.55 12.55 5 12 5C11.45 5 11 4.55 11 4C11 3.45 11.45 3 12 3ZM12 18L7 13H10V9H14V13H17L12 18Z" />
  </g>
  <g id="backout">
    <path fill-rule="evenodd" clip-rule="evenodd" d="M11 9L12.42 10.42L8.83 14H18V4H20V16H8.83L12.42 19.58L11 21L5 15L11 9Z" />
  </g>
  <g id="clock">
    <path fill-rule="evenodd" clip-rule="evenodd" d="M11.99 2C6.47 2 2 6.48 2 12C2 17.52 6.47 22 11.99 22C17.52 22 22 17.52 22 12C22 6.48 17.52 2 11.99 2ZM12 20C7.58 20 4 16.42 4 12C4 7.58 7.58 4 12 4C16.42 4 20 7.58 20 12C20 16.42 16.42 20 12 20Z" />
    <path fill-rule="evenodd" clip-rule="evenodd" d="M12.5 7H11V13L16.25 16.15L17 14.92L12.5 12.25V7Z" />
  </g>
  <g id="delivery">
    <path fill-rule="evenodd" clip-rule="evenodd" d="M20 8H17V4H3C1.9 4 1 4.9 1 6V17H3C3 18.66 4.34 20 6 20C7.66 20 9 18.66 9 17H15C15 18.66 16.34 20 18 20C19.66 20 21 18.66 21 17H23V12L20 8ZM6 18.5C5.17 18.5 4.5 17.83 4.5 17C4.5 16.17 5.17 15.5 6 15.5C6.83 15.5 7.5 16.17 7.5 17C7.5 17.83 6.83 18.5 6 18.5ZM19.5 9.5L21.46 12H17V9.5H19.5ZM18 18.5C17.17 18.5 16.5 17.83 16.5 17C16.5 16.17 17.17 15.5 18 15.5C18.83 15.5 19.5 16.17 19.5 17C19.5 17.83 18.83 18.5 18 18.5Z" />
  </g>
  <g id="show-chart">
    <path fill-rule="evenodd" clip-rule="evenodd" d="M3.5 18.49L9.5 12.48L13.5 16.48L22 6.92001L20.59 5.51001L13.5 13.48L9.5 9.48001L2 16.99L3.5 18.49Z" />
  </g>
  <g id="compare-arrows">
    <path fill-rule="evenodd" clip-rule="evenodd" d="M9.01 14H2V16H9.01V19L13 15L9.01 11V14ZM14.99 13V10H22V8H14.99V5L11 9L14.99 13Z" />
  </g>
  <g id="briefcase">
    <path fill-rule="evenodd" clip-rule="evenodd" d="M20 6H16V4C16 2.89 15.11 2 14 2H10C8.89 2 8 2.89 8 4V6H4C2.89 6 2.01 6.89 2.01 8L2 19C2 20.11 2.89 21 4 21H20C21.11 21 22 20.11 22 19V8C22 6.89 21.11 6 20 6ZM14 6H10V4H14V6Z" />
  </g>
  <g id="insert-drive-file">
    <path fill-rule="evenodd" clip-rule="evenodd" d="M6 2C4.9 2 4.01 2.9 4.01 4L4 20C4 21.1 4.89 22 5.99 22H18C19.1 22 20 21.1 20 20V8L14 2H6ZM13 9V3.5L18.5 9H13Z" />
  </g>
  <g id="file-upload">
    <path fill-rule="evenodd" clip-rule="evenodd" d="M9 16H15V10H19L12 3L5 10H9V16ZM5 18H19V20H5V18Z" />
  </g>
  <g id="refresh">
    <path fill-rule="evenodd" clip-rule="evenodd" d="M17.6498 6.35C16.1998 4.9 14.2098 4 11.9998 4C7.57977 4 4.00977 7.58 4.00977 12C4.00977 16.42 7.57977 20 11.9998 20C15.7298 20 18.8398 17.45 19.7298 14H17.6498C16.8298 16.33 14.6098 18 11.9998 18C8.68977 18 5.99977 15.31 5.99977 12C5.99977 8.69 8.68977 6 11.9998 6C13.6598 6 15.1398 6.69 16.2198 7.78L12.9998 11H19.9998V4L17.6498 6.35Z" />
  </g>
  <g id="credit-card">
    <path fill-rule="evenodd" clip-rule="evenodd" d="M20 4H4C2.89 4 2.01 4.89 2.01 6L2 18C2 19.11 2.89 20 4 20H20C21.11 20 22 19.11 22 18V6C22 4.89 21.11 4 20 4ZM20 18H4V12H20V18ZM20 8H4V6H20V8Z" />
  </g>
  <g id="lock-solid">
    <path fill-rule="evenodd" clip-rule="evenodd" d="M18 8H17V6C17 3.24 14.76 1 12 1C9.24 1 7 3.24 7 6V8H6C4.9 8 4 8.9 4 10V20C4 21.1 4.9 22 6 22H18C19.1 22 20 21.1 20 20V10C20 8.9 19.1 8 18 8ZM12 17C10.9 17 10 16.1 10 15C10 13.9 10.9 13 12 13C13.1 13 14 13.9 14 15C14 16.1 13.1 17 12 17ZM15.1 8H8.9V6C8.9 4.29 10.29 2.9 12 2.9C13.71 2.9 15.1 4.29 15.1 6V8Z" />
  </g>
  <g id="sold">
    <path fill-rule="evenodd" clip-rule="evenodd" d="M1.00007 21H13.0001V23H1.00007V21ZM5.24507 8.07L8.07507 5.243L22.2151 19.385L19.3871 22.213L5.24507 8.07ZM12.3171 1L17.9741 6.656L15.1441 9.486L9.49007 3.826L12.3171 1ZM3.82507 9.485L9.48207 15.142L6.65407 17.97L0.99707 12.313L3.82507 9.485Z" />
  </g>
  <g id="email-color">
    <path opacity="0.2" fill-rule="evenodd" clip-rule="evenodd" d="M12.0001 1.71429C6.32236 1.71429 1.71436 6.32229 1.71436 12C1.71436 17.6777 6.32236 22.2857 12.0001 22.2857C17.6778 22.2857 22.2858 17.6777 22.2858 12C22.2858 6.32229 17.6778 1.71429 12.0001 1.71429Z" />
    <path fill-rule="evenodd" clip-rule="evenodd" d="M16.8 7.45709H7.2C6.54 7.45709 6.006 7.99709 6.006 8.65709L6 15.8571C6 16.5171 6.54 17.0571 7.2 17.0571H16.8C17.46 17.0571 18 16.5171 18 15.8571V8.65709C18 7.99709 17.46 7.45709 16.8 7.45709ZM16.7997 9.85716L11.9997 12.8572L7.19971 9.85716V8.65716L11.9997 11.6572L16.7997 8.65716V9.85716Z" />
  </g>

</svg>